<?xml version="1.0" encoding="UTF-8"?>
<svg id="Layer_1" xmlns="http://www.w3.org/2000/svg" version="1.1" viewBox="0 0 198.64 57.72">
  <!-- Generator: Adobe Illustrator 30.2.1, SVG Export Plug-In . SVG Version: 2.1.1 Build 1)  -->
  <defs>
    <style>
      .st0 {
        fill: #101111;
      }
    </style>
  </defs>
  <path class="st0" d="M43.78,34.47c0,7.81-6.2,14.13-14.13,14.13s-14.02-6.15-14.02-14.13c0-3.73,1.44-7.07,3.68-9.54l-9.54,9.54-5-5.06,10.74-10.63c1.44-1.44,2.18-3.33,2.18-5.46V0h7.07v13.39c0,4.08-1.44,7.58-4.31,10.4l-.29.29c2.47-2.3,5.86-3.68,9.48-3.68,8.05-.01,14.14,6.37,14.14,14.07M37.41,34.47c0-4.19-3.45-7.58-7.7-7.58s-7.7,3.56-7.7,7.58,3.39,7.64,7.64,7.64,7.76-3.62,7.76-7.64"/>
  <path class="st0" d="M66.93,20.74c2.99,0,5.23.63,6.89,1.84,1.61,1.26,2.47,2.99,2.47,5.17,0,1.61-.46,2.93-1.32,4.02-.86,1.03-2.13,1.72-3.73,2.13,4.02.69,6.09,2.81,6.09,6.38,0,2.36-.86,4.19-2.59,5.51-1.72,1.32-4.19,2.01-7.41,2.01h-10.28v-27l9.88-.06h0ZM61.48,32.17h5.57c1.49,0,2.7-.34,3.5-1.03.86-.69,1.26-1.67,1.26-2.87s-.4-2.18-1.26-2.81c-.86-.69-2.01-1.03-3.5-1.03h-5.57v7.74ZM61.48,44h5.86c1.72,0,3.1-.34,4.02-1.03s1.44-1.67,1.44-2.93-.46-2.36-1.44-3.04c-.98-.75-2.3-1.09-4.02-1.09h-5.86v8.09Z"/>
  <path class="st0" d="M79.4,32.57c.8-1.55,1.95-2.7,3.39-3.56s3.1-1.26,5-1.26,3.56.4,5.06,1.15c1.44.75,2.59,1.84,3.45,3.27.86,1.44,1.26,3.1,1.32,5,0,.52-.06,1.03-.11,1.61h-14.88v.23c.11,1.72.63,3.1,1.61,4.08s2.3,1.49,3.91,1.49c1.26,0,2.36-.29,3.22-.92s1.44-1.44,1.72-2.59h4.19c-.34,2.01-1.32,3.68-2.93,4.94-1.61,1.26-3.56,1.95-5.92,1.95-2.07,0-3.85-.4-5.4-1.26s-2.7-2.01-3.56-3.5-1.26-3.27-1.26-5.29c-.02-2.01.39-3.79,1.19-5.34M93.3,35.73c-.17-1.44-.75-2.59-1.72-3.39-.98-.8-2.18-1.21-3.68-1.21-1.38,0-2.53.4-3.5,1.26-.98.86-1.55,1.95-1.72,3.33h10.62Z"/>
  <path class="st0" d="M117.77,44.12v3.62h-2.18c-1.26,0-2.24-.29-2.76-.8-.57-.52-.86-1.32-.86-2.36-1.49,2.24-3.68,3.39-6.55,3.39-2.24,0-3.96-.52-5.34-1.55-1.32-1.03-2.01-2.47-2.01-4.25,0-2.01.75-3.62,2.18-4.71,1.44-1.09,3.56-1.67,6.32-1.67h5v-1.21c0-1.09-.4-1.95-1.15-2.59-.75-.63-1.84-.92-3.22-.92-1.21,0-2.18.29-2.99.8-.8.52-1.26,1.21-1.44,2.13h-4.08c.23-1.95,1.09-3.5,2.64-4.6,1.55-1.09,3.56-1.67,6.09-1.67s4.71.63,6.15,1.84c1.44,1.26,2.18,2.99,2.18,5.34v7.81c0,.92.46,1.38,1.32,1.38l.7.02h0ZM111.51,38.95h-5.17c-1.26,0-2.3.23-2.99.75s-1.03,1.26-1.03,2.24c0,.86.34,1.55.98,2.07.63.52,1.55.75,2.7.75,1.72,0,3.04-.46,4.02-1.38.98-.92,1.44-2.18,1.49-3.73v-.7Z"/>
  <path class="st0" d="M119.38,31.65h-3.45v-3.68h3.45v-5.51h4.19v5.51h4.77v3.68h-4.77v10.28c0,.75.17,1.32.46,1.67.29.34.86.46,1.61.46h3.16v3.68h-4.02c-1.9,0-3.27-.46-4.14-1.32-.86-.86-1.32-2.24-1.32-4.08l.06-10.69h0Z"/>
  <path class="st0" d="M145.35,28.95c1.44.8,2.53,2.01,3.33,3.5.8,1.55,1.21,3.33,1.21,5.4s-.4,3.79-1.21,5.29c-.8,1.55-1.9,2.7-3.33,3.56-1.44.86-3.04,1.26-4.83,1.26-1.49,0-2.76-.29-3.85-.8-1.09-.52-1.95-1.26-2.59-2.18v10.51h-4.19v-27.51h3.62l.52,2.93c1.61-2.13,3.73-3.16,6.43-3.16,1.84,0,3.45.4,4.89,1.2M143.97,42.63c1.09-1.26,1.61-2.81,1.61-4.77s-.52-3.56-1.61-4.77-2.47-1.84-4.19-1.84-3.1.57-4.19,1.78c-1.03,1.21-1.61,2.76-1.61,4.71s.52,3.56,1.61,4.83c1.03,1.26,2.47,1.84,4.19,1.84,1.78.05,3.16-.58,4.19-1.78"/>
  <path class="st0" d="M155.92,46.7c-1.55-.86-2.7-2.01-3.56-3.56-.86-1.55-1.26-3.27-1.26-5.29s.4-3.73,1.26-5.29c.86-1.55,2.01-2.7,3.56-3.56s3.27-1.26,5.29-1.26,3.73.4,5.29,1.26,2.7,2.07,3.56,3.56c.86,1.55,1.26,3.27,1.26,5.29s-.4,3.79-1.26,5.29c-.86,1.55-2.01,2.7-3.56,3.56s-3.27,1.26-5.29,1.26c-2.02.01-3.74-.39-5.29-1.26M165.4,42.63c1.09-1.21,1.61-2.81,1.61-4.71s-.52-3.5-1.61-4.71-2.47-1.84-4.25-1.84-3.16.63-4.19,1.84-1.61,2.81-1.61,4.71.52,3.5,1.61,4.71c1.03,1.21,2.47,1.84,4.19,1.84,1.78-.06,3.21-.64,4.25-1.84"/>
  <path class="st0" d="M183.61,27.98v3.91h-1.84c-1.72,0-2.99.57-3.73,1.67-.75,1.09-1.15,2.53-1.15,4.25v9.94h-4.19v-19.77h3.73l.46,2.99c.57-.92,1.32-1.67,2.18-2.18.92-.52,2.13-.8,3.62-.8h.92Z"/>
  <path class="st0" d="M184.99,22.46h4.19v5.51h4.77v3.68h-4.77v10.28c0,.75.17,1.32.46,1.67.29.34.86.46,1.61.46h3.16v3.68h-4.02c-1.9,0-3.22-.46-4.08-1.32s-1.26-2.24-1.26-4.08l-.06-19.88h0Z"/>
</svg>