<?xml version="1.0" encoding="UTF-8"?>
<svg id="Layer_1" xmlns="http://www.w3.org/2000/svg" version="1.1" viewBox="0 0 88 24">
  <!-- Generator: Adobe Illustrator 29.0.0, SVG Export Plug-In . SVG Version: 2.1.0 Build 186)  -->
  <defs>
    <style>
      .st0 {
        fill: #fff;
      }
    </style>
  </defs>
  <path class="st0" d="M12.48,0C5.85-.25.27,4.9.01,11.52c-.26,6.62,4.89,12.2,11.51,12.47,6.62.26,12.2-4.89,12.47-11.51S19.1.27,12.48,0M17.54,17.59c-.2.34-.63.46-.98.27-1.59-.9-3.33-1.5-5.14-1.75-1.81-.26-3.65-.17-5.42.26-.39.08-.77-.18-.84-.57-.07-.36.15-.72.5-.82,1.95-.47,3.96-.57,5.96-.29,2,.28,3.9.93,5.65,1.92.34.2.46.63.27.98h0M19.12,14.44c-.24.45-.81.62-1.26.38,0,0,0,0,0,0-1.86-1-3.88-1.67-5.97-1.96-2.09-.3-4.22-.22-6.28.24-.5.11-1-.21-1.11-.71,0,0,0,0,0,0-.11-.5.21-1,.71-1.11,0,0,0,0,0,0,2.28-.5,4.63-.59,6.94-.26,2.31.32,4.55,1.05,6.6,2.16.45.24.62.81.38,1.26M20.87,10.89c-.29.56-.98.78-1.55.49-2.16-1.12-4.5-1.87-6.92-2.21-2.41-.34-4.87-.27-7.26.22-.62.12-1.22-.29-1.34-.91-.12-.61.28-1.2.88-1.33,2.64-.54,5.36-.62,8.03-.24,2.67.37,5.26,1.2,7.66,2.44.56.29.78.98.49,1.55M34.48,10.85l-.83-.25c-1.67-.49-2.14-.68-2.14-1.35,0-.64.71-1.33,2.26-1.33s2.84.75,3.51,1.31c.12.1.24.05.24-.1v-2.2c0-.1-.03-.15-.1-.2-.83-.62-2.27-1.07-3.72-1.07-2.95,0-4.72,1.68-4.72,3.59,0,2.16,1.37,2.91,3.63,3.55l.97.27c1.69.48,2,.9,2,1.56,0,1.1-.83,1.43-2.07,1.43-1.56,0-3.46-.91-4.35-2.02-.08-.1-.18-.05-.18.06v2.42c0,.1.01.14.08.22.74.81,2.52,1.53,4.59,1.53,2.55,0,4.46-1.49,4.46-3.78,0-1.79-1.05-2.86-3.62-3.64M44.59,9.09c-1.68,0-2.65,1.03-3.22,2.05v-1.77c0-.08-.04-.12-.12-.12h-2.22c-.08,0-.12.04-.12.12v11.34c0,.08.04.12.12.12h2.22c.08,0,.12-.04.12-.12v-4.54c.57,1.02,1.52,2.03,3.24,2.03,2.26,0,3.89-1.95,3.89-4.58s-1.64-4.55-3.91-4.55M43.93,16.08c-1.19,0-2.21-1.17-2.62-2.46.41-1.36,1.34-2.4,2.62-2.4s2.05.92,2.05,2.42-.84,2.44-2.05,2.44M84.57,9.25h-2.26c-.08,0-.11.02-.15.1l-2.28,5.48-2.29-5.48c-.04-.08-.07-.1-.15-.1h-3.66v-.58c0-.95.64-1.4,1.48-1.4.5,0,1.04.26,1.42.49.09.05.15,0,.11-.09l-.8-1.9c-.02-.06-.07-.11-.12-.13-.39-.2-1.03-.38-1.64-.38-1.88,0-2.95,1.43-2.95,3.25v.74h-1.5c-.08,0-.12.04-.12.12v1.77c0,.08.04.12.12.12h1.5v6.67c0,.08.04.12.12.12h2.26c.08,0,.12-.04.12-.12v-6.67h1.94l2.81,6.11-1.51,3.33c-.04.1,0,.14.1.14h2.41c.08,0,.12-.02.15-.1l5-11.35c.04-.08,0-.14-.1-.14M54.01,9.04c-2.87,0-4.84,2.03-4.84,4.62s1.97,4.62,4.84,4.62,4.85-2.04,4.85-4.62-1.99-4.62-4.85-4.62M54.02,16.1c-1.37,0-2.34-1.04-2.34-2.45s.97-2.45,2.34-2.45,2.33,1.04,2.33,2.45-.97,2.45-2.33,2.45M87.56,9.77c-.11-.2-.28-.36-.48-.47-.21-.12-.45-.17-.69-.17-.26,0-.49.06-.69.17-.2.11-.37.27-.48.47-.12.2-.17.43-.17.68s.06.48.17.68c.12.2.28.36.48.47.21.11.44.17.69.17.26,0,.49-.06.69-.17s.37-.27.48-.47.17-.43.18-.68c0-.25-.06-.48-.18-.68M87.35,11.02c-.09.16-.23.3-.39.39-.17.1-.37.14-.57.14-.2,0-.4-.04-.58-.14-.16-.09-.3-.23-.39-.39-.09-.17-.14-.37-.14-.57,0-.21.05-.4.14-.56.09-.16.22-.29.39-.39.17-.09.36-.14.58-.14.21,0,.4.05.57.14.17.09.3.22.39.39s.14.35.14.56-.05.39-.14.56M67.52,5.24c-.85,0-1.47.6-1.47,1.4s.62,1.4,1.47,1.4,1.49-.6,1.49-1.4-.62-1.4-1.49-1.4M86.85,10.43c.09-.06.14-.16.13-.26,0-.11-.04-.2-.13-.27-.09-.07-.21-.1-.38-.1h-.59v1.23h.28v-.49h.15l.37.49h.35l-.41-.52c.08-.01.15-.04.21-.08M86.42,10.32h-.26v-.3h.27c.08,0,.14.01.18.04.04.02.07.07.07.12,0,.05-.02.09-.07.11-.06.03-.13.04-.19.04M68.66,9.25h-2.26c-.08,0-.12.04-.12.12v8.56c0,.08.04.12.12.12h2.26c.08,0,.12-.04.12-.12v-8.56c0-.08-.04-.12-.12-.12M65.32,15.86c-.32.18-.69.26-1.05.26-.72,0-1.18-.43-1.18-1.36v-3.48h2.21c.08,0,.12-.04.12-.12v-1.77c0-.08-.04-.12-.12-.12h-2.21v-2.31c0-.1-.06-.15-.15-.08l-3.95,3.11c-.05.04-.07.09-.07.16v1.01c0,.08.04.12.12.12h1.54v3.86c0,2.09,1.2,3.06,2.92,3.06.74,0,1.46-.19,1.88-.44.06-.03.07-.07.07-.13v-1.68c0-.09-.04-.11-.12-.07"/>
</svg>