<?xml version="1.0" encoding="UTF-8"?>
<svg id="Layer_1" xmlns="http://www.w3.org/2000/svg" version="1.1" viewBox="0 0 199.58 62">
  <!-- Generator: Adobe Illustrator 30.2.1, SVG Export Plug-In . SVG Version: 2.1.1 Build 1)  -->
  <defs>
    <style>
      .st0 {
        fill: #00f2ea;
      }

      .st1 {
        fill: #ff004f;
      }
    </style>
  </defs>
  <path class="st1" d="M38.11,21.97c3.88,2.78,8.54,4.27,13.31,4.26v-9.55c-.94,0-1.88-.1-2.8-.29v7.51c-4.77,0-9.43-1.48-13.31-4.26v19.49c-.01,9.75-7.92,17.65-17.68,17.64-3.49,0-6.91-1.04-9.81-2.99,6.82,6.97,18,7.09,24.97.27,3.39-3.32,5.31-7.86,5.31-12.61v-19.47h.01ZM41.55,12.34c-1.97-2.15-3.18-4.89-3.44-7.79v-1.22h-2.65c.66,3.73,2.87,7.01,6.09,9.01h0ZM13.99,46.31c-2.7-3.55-2-8.62,1.55-11.32,2.09-1.59,4.83-2.06,7.33-1.26v-9.76c-.93-.13-1.86-.18-2.79-.16v7.6c-4.25-1.35-8.79.99-10.15,5.24-1.2,3.78.52,7.88,4.06,9.66h0Z"/>
  <path d="M35.31,19.65c3.88,2.78,8.54,4.27,13.31,4.26v-7.52c-2.72-.58-5.19-2-7.07-4.05-3.22-2-5.44-5.28-6.1-9.02h-6.96v38.13c-.02,4.46-3.66,8.06-8.12,8.04-2.51-.01-4.86-1.19-6.38-3.18-3.98-2.01-5.58-6.87-3.57-10.85,1.79-3.54,5.88-5.25,9.65-4.06v-7.6c-9.74.2-17.48,8.25-17.29,18,.09,4.49,1.89,8.77,5.03,11.98,8.1,5.43,19.07,3.25,24.5-4.85,1.94-2.9,2.98-6.32,2.99-9.81v-19.47h.01Z"/>
  <path class="st0" d="M48.62,16.39v-2.03c-2.5,0-4.95-.7-7.07-2.02,1.88,2.06,4.35,3.47,7.07,4.05ZM35.46,3.32c-.06-.36-.11-.73-.15-1.1v-1.22h-9.61v38.13c-.02,4.46-3.65,8.06-8.11,8.05-1.25-.01-2.48-.3-3.6-.86,2.71,3.55,7.77,4.23,11.32,1.52,1.99-1.52,3.17-3.88,3.18-6.38V3.32h6.97ZM20.08,23.81v-2.16c-.8-.11-1.61-.16-2.42-.16C7.91,21.48,0,29.38,0,39.13c0,5.89,2.93,11.39,7.83,14.67-6.82-6.97-6.69-18.14.27-24.95,3.21-3.15,7.49-4.94,11.98-5.04Z"/>
  <path class="st1" d="M159.95,48.79c6.92.08,12.6-5.46,12.68-12.38.08-6.92-5.46-12.6-12.38-12.68h-2.2c6.92-.08,12.6,5.46,12.68,12.38s-5.46,12.6-12.38,12.68h-.3,1.9Z"/>
  <path class="st0" d="M157.87,23.73h-1.9c-6.92-.08-12.6,5.46-12.68,12.38s5.46,12.6,12.38,12.68h2.2c-6.92.08-12.6-5.46-12.68-12.38s5.46-12.6,12.38-12.68c.1,0,.2,0,.3,0Z"/>
  <path d="M61.83,18.06v6.35h7.44v24.2h7.44v-24.02h6.06l2.08-6.53h-23.02ZM122.74,18.06v6.35h7.44v24.2h7.44v-24.02h6.06l2.08-6.53h-23.02ZM86.23,21.67c-.02-2.01,1.6-3.65,3.6-3.66,2.01-.02,3.65,1.6,3.66,3.6.02,2.01-1.6,3.65-3.6,3.66h-.03c-2,.01-3.62-1.6-3.63-3.6h0ZM86.23,27.85h7.26v20.77h-7.27v-20.77ZM96.61,18.06v30.55h7.27v-7.9l2.25-2.06,7.09,10.13h7.79l-10.21-14.76,9.17-8.93h-8.82l-7.27,7.21v-14.24h-7.27ZM175,18.06v30.55h7.27v-7.9l2.25-2.06,7.1,10.13h7.79l-10.21-14.76,9.17-8.93h-8.82l-7.27,7.21v-14.24h-7.28Z"/>
  <path d="M158.04,48.79c6.92.08,12.6-5.46,12.68-12.38.08-6.92-5.46-12.6-12.38-12.68h-.47c-6.92-.08-12.6,5.46-12.68,12.38-.08,6.92,5.46,12.6,12.38,12.68h.47ZM151.82,36.26c-.03-3.39,2.7-6.17,6.09-6.19,3.39-.03,6.17,2.7,6.19,6.09.03,3.39-2.7,6.17-6.09,6.19h-.05c-3.38.02-6.13-2.71-6.14-6.09h0Z"/>
</svg>