<?xml version="1.0" encoding="UTF-8"?>
<svg id="Layer_1" xmlns="http://www.w3.org/2000/svg" version="1.1" viewBox="0 0 284 74.9">
  <!-- Generator: Adobe Illustrator 30.2.1, SVG Export Plug-In . SVG Version: 2.1.1 Build 1)  -->
  <defs>
    <style>
      .st0 {
        fill: #080808;
        fill-rule: evenodd;
      }
    </style>
  </defs>
  <g id="Page-1">
    <g id="Desktop-Sell-Your-Music-1920">
      <g id="Store-Guide">
        <g id="Vevo">
          <path id="vevo" class="st0" d="M175.89,70.4L138.61,5.42h21.95l15.33,29.54,15.34-29.54h21.95l-37.3,64.98ZM45.37,70.4L8.09,5.42h21.95l15.33,29.54,15.34-29.54h21.95l-37.3,64.98ZM110.62,19.21c6.52.07,12.04,4.82,13.11,11.25h-26.22c1.73-7.04,6.39-11.25,13.11-11.25h0ZM143.26,37.21c.3-18.33-14.31-33.44-32.63-33.76-18.33.32-32.94,15.43-32.63,33.76-.23,18.4,14.49,33.51,32.9,33.74h.3c13.74.39,26.1-8.31,30.33-21.38h-19.65c-2.41,3.45-6.48,5.38-10.68,5.07-7.59,0-12.43-5.22-13.95-12.38h45.64c.25-1.68.38-3.36.38-5.06h0ZM242.27,52.97c-8.18-.09-14.74-6.79-14.65-14.97,0-.27.02-.52.04-.79-.52-8.16,5.68-15.2,13.84-15.72.25-.02.52-.02.77-.04,8.18.09,14.74,6.79,14.67,14.97,0,.25-.02.52-.04.79.52,8.16-5.68,15.2-13.84,15.72-.27.02-.52.04-.79.04h0ZM242.27,3.45c-18.65,0-33.76,15.11-33.76,33.76s15.11,33.76,33.76,33.76,33.76-15.11,33.76-33.76S260.92,3.45,242.27,3.45h0Z"/>
        </g>
      </g>
    </g>
  </g>
</svg>