<?xml version="1.0" encoding="UTF-8"?>
<svg id="Layer_1" xmlns="http://www.w3.org/2000/svg" version="1.1" viewBox="0 0 213 80">
  <!-- Generator: Adobe Illustrator 30.2.1, SVG Export Plug-In . SVG Version: 2.1.1 Build 1)  -->
  <defs>
    <style>
      .st0 {
        fill: #fff;
      }
    </style>
  </defs>
  <path class="st0" d="M40.2,11.7c-16.1,0-29.2,12.9-29.2,28.8s13,28.8,29.2,28.8,29.2-12.9,29.2-28.8-13.1-28.8-29.2-28.8ZM40.2,59.2c-10.5,0-19-8.4-19-18.7s8.5-18.7,19-18.7,19,8.4,19,18.7-8.6,18.7-19,18.7Z"/>
  <path class="st0" d="M100.8,34.8c-1.4,6.8-2.4,15.2-3,18.7h-.4c-.4-3.6-1.5-11.9-2.9-18.6l-3.6-16.8h-10.8v45.3h6.7V26.1l.7,3.5,6.8,33.8h6.7l6.7-33.8.7-3.5v37.3h6.7V18.1h-11c.2,0-3.3,16.7-3.3,16.7h0ZM133.4,56.6c-.6,1.2-1.9,2.1-3.3,2.1s-2.2-1.2-2.2-4.1v-24.3h-7.7v24.7c0,6.1,2.1,8.9,6.6,8.9s5.6-1.3,7.3-4.6h.2l.7,4h6V30.3h-7.7v26.3h.1ZM155.9,43.4c-2.5-1.8-4.1-3-4.1-5.6s.9-2.9,3-2.9,2.9,1.5,2.9,6.4l6.5-.3c.5-8-2.2-11.4-9.3-11.4s-9.8,2.9-9.8,8.7,2.7,7.8,7,11c3.7,2.8,5.9,4.4,5.9,6.6s-1.1,2.9-3.1,2.9-3.6-2.1-3.3-5.8h-6.5c-1,6.9,1.8,10.9,9.4,10.9s10.1-3,10.1-8.9c.1-5.2-2.7-7.3-8.7-11.6h0ZM176.3,30.3h-7.3v33.1h7.3V30.3h0ZM172.7,17.3c-2.8,0-4.2,1-4.2,4.6s1.3,4.6,4.2,4.6,4.2-.9,4.2-4.6c0-3.5-1.3-4.6-4.2-4.6ZM201,51.4l-6.7-.3c0,5.8-.7,7.7-2.9,7.7s-2.7-2.1-2.7-9v-6.4c0-6.6.4-8.7,2.7-8.7s2.7,2,2.7,8.1l6.7-.4c.4-5.1-.2-8.6-2.3-10.6-1.5-1.5-3.8-2.2-7-2.2-7.5,0-10.5,3.9-10.5,14.8v4.6c0,11.2,2.6,14.8,10.2,14.8s5.4-.6,7-2.1c2.1-1.8,2.9-5.1,2.8-10.3h0Z"/>
  <path class="st0" d="M40.2,24.7c-8.9,0-16.1,7.1-16.1,15.8s7.2,15.8,16.1,15.8,16.1-7.1,16.1-15.8-7.2-15.8-16.1-15.8ZM34.3,49.3v-17l15.2,8.5-15.2,8.5Z"/>
</svg>